<?xml version="1.0" standalone="no"?>
<!DOCTYPE svg PUBLIC "-//W3C//DTD SVG 20010904//EN"
 "http://www.w3.org/TR/2001/REC-SVG-20010904/DTD/svg10.dtd">
<svg version="1.0" xmlns="http://www.w3.org/2000/svg"
 width="395.000000pt" height="395.000000pt" viewBox="0 0 395.000000 395.000000"
 preserveAspectRatio="xMidYMid meet">
<metadata>
Created by potrace 1.11, written by Peter Selinger 2001-2013
</metadata>
<g transform="translate(0.000000,395.000000) scale(0.100000,-0.100000)"
fill="#000000" stroke="none">
<path d="M1952 3820 c-12 -5 -52 -15 -89 -21 -77 -13 -147 -46 -183 -84 -24
-26 -23 -26 45 8 110 55 190 72 340 72 149 0 195 -15 228 -73 l19 -32 -33 -44
c-38 -49 -113 -101 -204 -142 -74 -33 -144 -84 -145 -105 0 -28 98 -106 122
-96 9 4 8 6 -3 6 -28 2 -71 56 -67 86 2 23 19 38 88 81 47 30 114 68 149 84
69 33 137 88 160 128 14 27 2 72 -21 72 -6 0 -24 12 -39 26 -16 15 -47 30 -71
35 -57 11 -267 10 -296 -1z"/>
<path d="M1890 3714 c-37 -17 -80 -52 -80 -66 0 -16 29 -8 39 11 14 26 63 41
130 41 99 0 142 -45 84 -89 -15 -11 -33 -25 -39 -30 -6 -5 -28 -20 -50 -33
-46 -29 -109 -97 -119 -127 -14 -44 14 -91 77 -131 33 -22 74 -43 91 -48 18
-6 58 -17 90 -27 80 -24 73 -38 -17 -33 -59 3 -80 8 -98 24 -13 12 -45 29 -73
38 -112 37 -155 76 -155 145 0 27 8 42 42 73 23 21 35 38 28 38 -25 0 -80 -24
-80 -35 0 -5 -16 -21 -35 -34 -28 -19 -35 -30 -35 -55 0 -31 30 -76 50 -76 5
0 24 -12 42 -27 49 -41 71 -51 127 -59 60 -8 68 -24 11 -24 -21 0 -59 -6 -82
-14 -24 -7 -90 -28 -148 -47 -125 -39 -210 -92 -210 -130 0 -11 32 -89 76
-184 32 -70 60 -190 75 -323 12 -107 12 -113 -7 -127 -10 -8 -26 -15 -34 -15
-8 0 -27 -11 -42 -24 -16 -13 -48 -31 -73 -40 -45 -18 -45 -18 -45 -67 0 -48
1 -49 30 -49 30 0 31 -1 29 -42 -2 -24 -8 -52 -16 -63 -7 -11 -13 -34 -13 -51
0 -18 -4 -34 -9 -36 -4 -1 -17 -28 -27 -58 -15 -44 -18 -73 -14 -143 l5 -87
-82 0 -83 0 0 -65 0 -65 65 0 65 0 0 -135 0 -135 -95 -92 -96 -92 3 -96 c3
-88 5 -96 26 -105 14 -6 20 -15 16 -25 -4 -8 -28 -80 -55 -159 l-49 -145 22
-32 c24 -34 137 -112 251 -173 40 -21 99 -56 132 -78 33 -22 76 -48 95 -58 46
-24 215 -134 274 -179 30 -22 59 -36 77 -36 16 0 29 -5 29 -11 0 -17 93 39
183 112 18 14 39 29 47 32 8 4 53 31 100 62 47 30 108 66 135 80 28 14 68 39
90 55 22 16 96 58 165 92 68 34 132 71 142 82 18 23 15 56 -8 91 -8 11 -14 30
-14 42 0 13 -4 23 -10 23 -5 0 -10 12 -10 28 0 15 -12 54 -25 87 -14 33 -25
73 -25 89 0 26 2 28 29 23 l30 -6 3 104 c2 58 1 105 -2 105 -7 0 -55 38 -94
74 -17 16 -47 40 -68 53 l-36 24 -1 87 c-2 123 8 202 25 202 8 0 14 5 14 10 0
6 23 10 50 10 l50 0 0 59 c0 68 -3 71 -91 71 -56 0 -59 1 -59 25 0 14 5 25 10
25 15 0 12 58 -9 156 -22 104 -39 154 -52 154 -5 0 -9 7 -9 15 0 9 -7 18 -15
21 -10 4 -15 20 -15 45 0 38 1 39 36 39 36 0 36 1 30 33 -18 89 -15 84 -69 99
-44 12 -52 19 -55 40 -3 22 2 27 30 33 47 11 90 38 148 97 33 33 43 70 43 163
0 77 -43 233 -72 259 -9 8 -36 18 -61 23 -37 7 -46 13 -48 32 -2 13 1 26 6 30
9 6 16 39 13 69 -1 6 -6 12 -12 12 -6 0 -24 11 -39 24 -16 13 -82 40 -147 61
-65 20 -143 47 -173 60 -30 12 -86 35 -124 51 -83 33 -156 97 -156 136 0 37
105 130 195 174 39 18 83 44 100 58 27 21 28 25 15 41 -25 31 -75 45 -177 50
-76 4 -106 1 -133 -11z"/>
</g>
</svg>
